<svg xmlns="http://www.w3.org/2000/svg" width="200" height="300" viewBox="0 0 200 300" fill="none">
  <rect width="200" height="300" rx="12" fill="#f5f0eb"/>
  <rect x="16" y="16" width="168" height="268" rx="6" fill="#ebe5de" stroke="#d4cdc5" stroke-width="1"/>
  <rect x="30" y="40" width="80" height="6" rx="3" fill="#c9c1b8"/>
  <rect x="30" y="56" width="120" height="4" rx="2" fill="#ddd6cd"/>
  <rect x="30" y="68" width="110" height="4" rx="2" fill="#ddd6cd"/>
  <rect x="30" y="80" width="115" height="4" rx="2" fill="#ddd6cd"/>
  <rect x="30" y="92" width="100" height="4" rx="2" fill="#ddd6cd"/>
  <rect x="30" y="104" width="118" height="4" rx="2" fill="#ddd6cd"/>
  <rect x="30" y="116" width="90" height="4" rx="2" fill="#ddd6cd"/>
  <rect x="30" y="128" width="112" height="4" rx="2" fill="#ddd6cd"/>
  <rect x="30" y="140" width="105" height="4" rx="2" fill="#ddd6cd"/>
  <rect x="30" y="152" width="95" height="4" rx="2" fill="#ddd6cd"/>
  <rect x="30" y="164" width="120" height="4" rx="2" fill="#ddd6cd"/>
  <rect x="30" y="176" width="108" height="4" rx="2" fill="#ddd6cd"/>
  <rect x="30" y="188" width="85" height="4" rx="2" fill="#ddd6cd"/>
  <rect x="30" y="200" width="115" height="4" rx="2" fill="#ddd6cd"/>
  <rect x="30" y="212" width="100" height="4" rx="2" fill="#ddd6cd"/>
  <text x="100" y="260" text-anchor="middle" font-family="serif" font-size="12" fill="#a39890">No Cover Available</text>
</svg>
